<svg xmlns="http://www.w3.org/2000/svg" width="64" height="64" viewBox="0 0 64 64" role="img" aria-label="Wenzao Cafe">
  <defs>
    <linearGradient id="g" x1="0" x2="1" y1="0" y2="1">
      <stop offset="0" stop-color="#8b5e3c"/>
      <stop offset="1" stop-color="#ffd29b"/>
    </linearGradient>
  </defs>
  <rect width="64" height="64" rx="12" fill="#fffefc"/>
  <g transform="translate(6,10)" fill="none" stroke="url(#g)" stroke-linecap="round" stroke-linejoin="round" stroke-width="2.8">
    <path d="M6 34h28a6 6 0 0 0 6-6v-2a10 10 0 0 0-10-10H6z" fill="#8b5e3c" stroke="none"/>
    <path d="M34 18c3 0 6 2 6 6s-3 6-6 6" fill="none"/>
  </g>
  <g transform="translate(16,6)" stroke="#fff" stroke-width="1.2" stroke-linecap="round" fill="none">
    <path d="M6 6c1.5-2 4-3 6-3"/>
    <path d="M8 2c0.8-1 2-1.8 3-2"/>
  </g>
</svg>